<svg xmlns="http://www.w3.org/2000/svg" viewBox="0 0 24 23.09"><defs><style>.cls-1{fill:#fff;}</style></defs><title>icon-user_1</title><g id="Layer_2" data-name="Layer 2"><g id="Слой_1" data-name="Слой 1"><path class="cls-1" d="M16.58,1.79A5.68,5.68,0,0,0,12.36,0,5.68,5.68,0,0,0,8.14,1.79,5.86,5.86,0,0,0,6.38,6a5.75,5.75,0,0,0,1.76,4.22A5.76,5.76,0,0,0,12.36,12a5.76,5.76,0,0,0,4.22-1.76A5.75,5.75,0,0,0,18.34,6,5.86,5.86,0,0,0,16.58,1.79Zm-2,6.47a3.11,3.11,0,0,1-2.25.88,3.11,3.11,0,0,1-2.25-.88A3,3,0,0,1,9.2,6a3.05,3.05,0,0,1,.91-2.25,3.24,3.24,0,0,1,4.5,0A3.05,3.05,0,0,1,15.52,6,3,3,0,0,1,14.61,8.26Zm7.18,8a14.7,14.7,0,0,0-4.88-2.11A21,21,0,0,0,12,13.54a21,21,0,0,0-4.91.64,14.7,14.7,0,0,0-4.88,2.11C.74,17.27,0,18.37,0,19.59v3.5H3V19.47c0-.56,1-1.23,3-2a16.2,16.2,0,0,1,12,0c2,.77,3,1.44,3,2v3.62h3v-3.5C24,18.37,23.26,17.27,21.79,16.29Z"/></g></g></svg>